<svg width="16" height="16" viewBox="0 0 16 16" fill="none" xmlns="http://www.w3.org/2000/svg">
<path d="M5.1529 0.73484C4.91228 0.179738 4.27794 -0.115719 3.67171 0.0424548L0.921834 0.758715C0.378108 0.901967 0 1.37351 0 1.9107C0 9.29415 6.26847 15.2809 13.9994 15.2809C14.5619 15.2809 15.0556 14.9198 15.2056 14.4005L15.9555 11.7742C16.1212 11.1952 15.8118 10.5894 15.2306 10.3596L12.2307 9.16582C11.7214 8.96288 11.1308 9.10315 10.7839 9.51202L9.52146 10.9833C7.32155 9.98952 5.54038 8.2884 4.4998 6.18737L6.04036 4.98465C6.46846 4.6504 6.61533 4.08933 6.40284 3.60287L5.1529 0.737824V0.73484Z" fill="white"/>
</svg>
