<svg width="114" height="80" viewBox="0 0 114 80" fill="none" xmlns="http://www.w3.org/2000/svg">
<g clip-path="url(#clip0_33_4654)">
<path d="M79.575 0H0V80H79.575V0Z" fill="#061944"/>
<path d="M45.4992 58.8668H7.71436V20.1868H114V50.5334H111.79V22.409H9.92477V56.6445H45.4992V58.8668Z" fill="white"/>
<path d="M54.3277 44.9867C54.9997 44.9867 55.5744 44.8533 56.1137 44.6L55.9413 46.5467C55.3092 46.8178 54.5974 46.9511 53.9475 46.9511C51.799 46.9511 50.4551 45.8711 50.4551 43.6711V34.5467L52.8512 34.2178V36.84H56.1314L55.959 38.6356H52.8512V43.3822C52.8512 44.5956 53.5408 44.9822 54.3277 44.9822V44.9867Z" fill="white"/>
<path d="M18.7798 46.5555V32.7866H26.7815V34.9866H21.3085V38.4888H26.0255V40.7111H21.3085V44.3511H26.7815V46.5511H18.7798V46.5555Z" fill="white"/>
<path d="M34.0938 46.5555L32.1619 43.1333H32.0248L30.0929 46.5555H27.604L30.65 41.3733L27.6836 36.3511H30.3096L32.1398 39.5911H32.2591L34.0894 36.3511H36.5783L33.6517 41.3555L36.6977 46.56H34.0894H34.0938V46.5555Z" fill="white"/>
<path d="M42.9307 46.6354C42.4533 46.6887 42.0023 46.7154 41.5779 46.7154C40.4374 46.7154 39.593 46.5287 39.0492 46.1554C38.5054 45.782 38.1518 45.2398 37.9926 44.5243C37.8335 43.8131 37.7539 42.7865 37.7539 41.4531C37.7539 40.1198 37.8423 39.1242 38.0236 38.3909C38.2048 37.6576 38.5629 37.1065 39.0978 36.742C39.6372 36.3731 40.4462 36.1909 41.5381 36.1909C41.9891 36.1909 42.4488 36.2176 42.9219 36.2709C43.3905 36.3243 43.7751 36.3998 44.0669 36.4887V38.3687C43.4966 38.262 42.8644 38.2087 42.1747 38.2087C41.5514 38.2087 41.1049 38.2843 40.8308 38.4398C40.5567 38.5954 40.3799 38.8887 40.2915 39.3198C40.203 39.7554 40.1633 40.462 40.1633 41.4487C40.1633 42.4354 40.2075 43.1643 40.3047 43.5998C40.3976 44.0354 40.5788 44.3243 40.8529 44.4709C41.1226 44.6176 41.5735 44.6887 42.1968 44.6887C42.8865 44.6887 43.5364 44.6442 44.1464 44.5509V46.4131C43.8149 46.5065 43.4082 46.582 42.9307 46.6354Z" fill="white"/>
<path d="M46.0962 33.9687V31.6887H48.5453V33.9687H46.0962ZM46.1183 46.5554V36.3509H48.5276V46.5554H46.1183Z" fill="white"/>
<path d="M65.3443 42.231H59.7917C59.7917 43.031 59.8359 43.5865 59.9199 43.9021C60.0039 44.2176 60.2117 44.431 60.5388 44.5421C60.866 44.6576 61.4318 44.711 62.2408 44.711C63.1029 44.711 64.0313 44.6576 65.026 44.551V46.4132C64.6414 46.5065 64.1374 46.5821 63.514 46.6354C62.8907 46.6887 62.2851 46.7154 61.7015 46.7154C60.3885 46.7154 59.4292 46.5465 58.8235 46.2043C58.2179 45.8621 57.8289 45.3421 57.6476 44.6443C57.4663 43.9421 57.3779 42.8887 57.3779 41.471C57.3779 40.0532 57.4663 39.0532 57.6476 38.3376C57.8289 37.6221 58.2091 37.0887 58.7926 36.7287C59.3762 36.3687 60.2868 36.1865 61.5203 36.1865C62.7537 36.1865 63.598 36.3599 64.1374 36.7065C64.6767 37.0532 65.0083 37.5687 65.1409 38.2576C65.2735 38.9465 65.3399 40.0132 65.3399 41.471V42.231H65.3443ZM60.3664 38.351C60.141 38.471 59.9906 38.6932 59.9199 39.0132C59.8448 39.3332 59.805 39.8621 59.7917 40.5954H63.0764C63.0764 39.8621 63.0322 39.3287 62.9482 38.9954C62.8598 38.6621 62.7095 38.4443 62.4884 38.3332C62.2674 38.2265 61.9358 38.1732 61.4849 38.1732C60.9676 38.1732 60.5963 38.231 60.3708 38.3554H60.3664V38.351Z" fill="white"/>
<path d="M74.2081 46.6222C73.6643 46.6844 73.1515 46.7111 72.674 46.7111C71.2019 46.7111 70.1232 46.5111 69.438 46.1111C68.7528 45.7111 68.2974 45.0311 68.0631 44.0711C67.8288 43.1111 67.7139 41.6444 67.7139 39.6711C67.7139 37.6978 67.8288 36.2311 68.0631 35.28C68.293 34.3244 68.7572 33.6444 69.4468 33.24C70.1365 32.8311 71.2107 32.6311 72.6696 32.6311C73.1736 32.6311 73.6908 32.6667 74.2213 32.7333C74.7518 32.8 75.1762 32.88 75.4945 32.9733V35.0133C74.4866 34.8933 73.735 34.8311 73.2443 34.8311C72.2496 34.8311 71.56 34.9289 71.1754 35.12C70.7908 35.3155 70.5432 35.72 70.4283 36.3422C70.3133 36.9644 70.2603 38.0711 70.2603 39.6755C70.2603 41.28 70.3177 42.3867 70.4283 43.0089C70.5388 43.6311 70.7908 44.0355 71.1754 44.2311C71.56 44.4267 72.2496 44.52 73.2443 44.52C74.0136 44.52 74.7828 44.4622 75.552 44.3378V46.4C75.1939 46.4933 74.743 46.5689 74.1992 46.6311L74.2081 46.6222Z" fill="white"/>
<path d="M78.6071 46.2621C78.0368 45.9599 77.6699 45.4665 77.5107 44.7821C77.3516 44.0976 77.272 42.9865 77.272 41.4487C77.272 39.911 77.3516 38.7865 77.5107 38.0976C77.6699 37.4087 78.0368 36.9199 78.6071 36.6265C79.1774 36.3332 80.1146 36.1865 81.4143 36.1865C82.714 36.1865 83.6291 36.3332 84.1994 36.6265C84.7697 36.9199 85.1366 37.4132 85.2958 38.1065C85.4549 38.7999 85.5345 39.9154 85.5345 41.4487C85.5345 42.9821 85.4549 44.0932 85.2958 44.7821C85.1366 45.471 84.7697 45.9643 84.1994 46.2621C83.6291 46.5599 82.7008 46.711 81.4143 46.711C80.1278 46.711 79.1774 46.5599 78.6071 46.2621ZM82.6256 44.4932C82.8511 44.3599 82.9925 44.0932 83.0456 43.6932C83.0986 43.2932 83.1252 42.5465 83.1252 41.4532C83.1252 40.3599 83.0986 39.5954 83.0456 39.2043C82.9925 38.8132 82.8555 38.5465 82.6389 38.4132C82.4178 38.2799 82.0111 38.2132 81.4143 38.2132C80.8175 38.2132 80.4063 38.2799 80.1809 38.4132C79.9554 38.5465 79.814 38.8087 79.7609 39.2043C79.7079 39.5999 79.6813 40.3465 79.6813 41.4532C79.6813 42.5599 79.7079 43.2932 79.7609 43.6932C79.814 44.0932 79.951 44.3599 80.1809 44.4932C80.4063 44.6265 80.8175 44.6932 81.4143 44.6932C82.0111 44.6932 82.4046 44.6265 82.63 44.4932H82.6256Z" fill="white"/>
<path d="M88.6203 46.2532C88.1826 45.9465 87.8643 45.4177 87.6654 44.6621C87.4664 43.9065 87.3647 42.8443 87.3647 41.471C87.3647 40.0977 87.462 39.0532 87.6521 38.2977C87.8422 37.5421 88.1561 37.0043 88.5893 36.6754C89.0226 36.3465 89.6194 36.1865 90.393 36.1865C91.0296 36.1865 91.5601 36.2843 91.9845 36.4754C92.4089 36.671 92.7405 36.9999 92.9792 37.4665H93.1207V31.6843H95.5079V46.551H93.2798L93.2003 45.2888H93.0588C92.6742 46.2354 91.8033 46.711 90.4505 46.711C89.668 46.711 89.0579 46.5599 88.6203 46.2488V46.2532ZM92.4133 44.3954C92.6344 44.2754 92.7935 44.0754 92.8996 43.7954C92.9792 43.5554 93.0367 43.2532 93.0676 42.8843C93.0986 42.5199 93.1163 42.0399 93.1163 41.4532C93.1163 40.9065 93.1074 40.471 93.0853 40.1421C93.0632 39.8132 93.0146 39.5377 92.935 39.311C92.8422 38.9643 92.683 38.7154 92.4575 38.5688C92.2321 38.4221 91.9005 38.3465 91.4629 38.3465C90.9191 38.3465 90.5389 38.4088 90.3179 38.5377C90.1012 38.6665 89.9509 38.9332 89.8802 39.3377C89.805 39.7465 89.7697 40.4488 89.7697 41.4488C89.7697 42.4488 89.805 43.1732 89.8802 43.5821C89.9509 43.991 90.1012 44.2577 90.3179 44.3821C90.5389 44.511 90.9191 44.5732 91.4629 44.5732C91.874 44.5732 92.1879 44.511 92.4089 44.391L92.4133 44.3954Z" fill="white"/>
<path d="M105.636 42.231H100.083C100.083 43.031 100.127 43.5865 100.211 43.9021C100.295 44.2176 100.503 44.431 100.83 44.5421C101.157 44.6576 101.723 44.711 102.532 44.711C103.394 44.711 104.323 44.6576 105.317 44.551V46.4132C104.933 46.5065 104.429 46.5821 103.806 46.6354C103.182 46.6887 102.577 46.7154 101.993 46.7154C100.68 46.7154 99.7207 46.5465 99.115 46.2043C98.5094 45.8621 98.1204 45.3421 97.9391 44.6443C97.7579 43.9421 97.6694 42.8887 97.6694 41.471C97.6694 40.0532 97.7579 39.0532 97.9391 38.3376C98.1204 37.6221 98.5006 37.0887 99.0841 36.7287C99.6677 36.3687 100.578 36.1865 101.812 36.1865C103.045 36.1865 103.89 36.3599 104.429 36.7065C104.968 37.0532 105.3 37.5687 105.432 38.2576C105.565 38.9465 105.631 40.0132 105.631 41.471V42.231H105.636ZM100.658 38.351C100.432 38.471 100.282 38.6932 100.211 39.0132C100.136 39.3332 100.096 39.8621 100.083 40.5954H103.368C103.368 39.8621 103.324 39.3287 103.24 38.9954C103.151 38.6621 103.001 38.4443 102.78 38.3332C102.559 38.2265 102.227 38.1732 101.776 38.1732C101.259 38.1732 100.888 38.231 100.662 38.3554H100.658V38.351Z" fill="white"/>
<path d="M64.301 58.8223C64.301 58.6668 64.2612 58.5912 64.186 58.5912H63.7661L61.5512 53.1423H60.866L58.8059 58.5912H58.1958V58.8579H59.9509C59.9509 58.7023 59.9111 58.6268 59.8359 58.6268H59.1861L59.8713 56.7823H61.7413L62.4663 58.6268H61.7811V58.8934H64.301V58.8179V58.8223ZM61.6264 56.4446H59.9862L60.7864 54.2579L61.6264 56.4446Z" fill="white"/>
<path d="M69.1903 58.5956H68.8852V54.7556H67.2053V54.9867H67.6651V57.3645C67.6253 57.8623 67.4352 58.169 67.1301 58.3645C67.055 58.4045 66.9401 58.4401 66.8251 58.4401C66.4803 58.4401 66.2504 58.249 66.215 57.8267V54.7556H64.46V54.9867H64.9949V57.3645C64.9949 58.4001 65.4546 58.8978 66.33 58.8978C66.9047 58.8978 67.3247 58.6312 67.6297 58.1289C67.6695 58.0889 67.6695 58.0534 67.6695 58.0134L67.7093 58.7823H69.429C69.429 58.6267 69.3892 58.5512 69.314 58.5512C69.2742 58.5912 69.2389 58.5912 69.1991 58.5912L69.1903 58.5956Z" fill="white"/>
<path d="M69.7344 55.0222H70.3842V57.4C70.3842 58.32 70.7644 58.8222 71.5292 58.8978H71.7591C72.2543 58.8978 72.5593 58.7422 72.7538 58.4355C72.829 58.28 72.9085 58.0533 72.9439 57.8222L72.6786 57.7822C72.5637 58.28 72.3736 58.5867 72.1039 58.6267H71.989C71.7591 58.6267 71.6088 58.4711 71.569 58.1289V55.0178H72.7892V54.7866H71.569V53.6755L70.3842 53.8666V54.7866H69.7344V55.0178V55.0222Z" fill="white"/>
<path d="M74.5837 56.751C74.5837 55.8666 74.6986 55.2932 74.9285 55.0621C75.0434 54.9066 75.2335 54.831 75.5032 54.831C75.9232 54.831 76.1531 55.0221 76.268 55.4443C76.3432 55.711 76.3829 56.1332 76.3829 56.711C76.3829 57.631 76.268 58.2088 76.0381 58.4399C75.8834 58.5555 75.7331 58.631 75.5032 58.631C75.123 58.631 74.8533 58.4399 74.7384 58.0177C74.6235 57.7866 74.5837 57.3644 74.5837 56.751ZM75.5386 54.5999C74.7738 54.5999 74.1637 54.8666 73.7437 55.4044C73.4387 55.7866 73.3237 56.2488 73.3237 56.7466C73.3237 57.4755 73.5536 58.0132 74.0487 58.4355C74.4289 58.7821 74.8887 58.9332 75.4634 58.9332C76.1884 58.9332 76.7985 58.6666 77.2185 58.1288C77.5235 57.7066 77.6783 57.2443 77.6783 56.7066C77.6783 56.0177 77.413 55.4399 76.9134 55.0577C76.5333 54.751 76.0735 54.5955 75.5386 54.5955V54.5999Z" fill="white"/>
<path d="M80.0301 58.5957H79.84V56.1379C79.8798 55.6401 80.0301 55.2934 80.3351 55.1379C80.4103 55.0979 80.4899 55.0623 80.565 55.0623C80.7949 55.0623 80.9452 55.2179 81.0602 55.4846C81.0999 55.6401 81.1353 55.7912 81.1353 55.9468V58.0579C81.1353 58.3246 81.0602 58.4801 80.9452 58.5201C80.8701 58.5201 80.7905 58.5601 80.7153 58.5601V58.7912H82.7003C82.7003 58.6357 82.6605 58.5601 82.5853 58.5601H82.3201V56.0668C82.3599 55.529 82.55 55.2223 82.8152 55.0668C82.8904 55.0268 82.9302 55.0268 83.0053 55.0268C83.2706 55.0268 83.4651 55.1823 83.58 55.489C83.6198 55.6046 83.6198 55.7557 83.6198 55.9112V58.0223C83.6198 58.289 83.5447 58.4446 83.4297 58.4846C83.3546 58.4846 83.275 58.5246 83.1998 58.5246V58.7557H85.3395C85.3395 58.6001 85.2997 58.5246 85.2246 58.5246H84.8046V56.0312C84.8046 55.4179 84.6145 54.9557 84.1945 54.7246C84.0044 54.609 83.8143 54.5334 83.5845 54.5334C82.9744 54.5334 82.5146 54.8401 82.2096 55.4179C82.0548 54.9557 81.7896 54.689 81.4094 54.5734C81.2945 54.5334 81.2193 54.5334 81.1044 54.5334C80.4943 54.5334 80.0743 54.8001 79.7693 55.3779L79.8091 54.7646H78.1291V54.9957H78.6641V58.1068C78.6641 58.4135 78.5093 58.569 78.2441 58.6046H78.0894V58.8357H80.229C80.229 58.6801 80.1893 58.6046 80.1141 58.6046C80.1141 58.6046 80.0743 58.6046 80.0389 58.6046L80.0301 58.5957Z" fill="white"/>
<path d="M87.1257 56.751C87.1257 55.8666 87.2406 55.2932 87.4705 55.0621C87.5854 54.9066 87.7755 54.831 88.0452 54.831C88.4652 54.831 88.6951 55.0221 88.81 55.4443C88.8852 55.711 88.9249 56.1332 88.9249 56.711C88.9249 57.631 88.81 58.2088 88.5801 58.4399C88.4254 58.5555 88.2751 58.631 88.0452 58.631C87.665 58.631 87.3953 58.4399 87.2804 58.0177C87.2052 57.7866 87.1257 57.3644 87.1257 56.751ZM88.0806 54.5999C87.3158 54.5999 86.7057 54.8666 86.2857 55.4044C85.9807 55.7866 85.8657 56.2488 85.8657 56.7466C85.8657 57.4755 86.0956 58.0132 86.5907 58.4355C86.9709 58.7821 87.4307 58.9332 88.0054 58.9332C88.7304 58.9332 89.3405 58.6666 89.7605 58.1288C90.0655 57.7066 90.2202 57.2443 90.2202 56.7066C90.2202 56.0177 89.955 55.4399 89.4554 55.0577C89.0753 54.751 88.6155 54.5955 88.0806 54.5955V54.5999Z" fill="white"/>
<path d="M93.4875 58.9379C94.0976 58.9379 94.5927 58.7067 94.9774 58.249C95.3222 57.8267 95.4725 57.329 95.4725 56.6756C95.4725 55.8712 95.2072 55.2534 94.7077 54.9112C94.4424 54.7201 94.133 54.6445 93.8279 54.6445C93.1781 54.6445 92.6829 54.9912 92.3779 55.6045V52.689H90.6582V52.9556H91.1931V58.1379C91.1931 58.4045 91.0782 58.5601 90.8881 58.6001H90.6582V58.8667H92.1082L92.1834 58.2134C92.4884 58.6756 92.9482 58.9023 93.4831 58.9423L93.4875 58.9379ZM93.3726 55.0623C93.9075 55.0623 94.1728 55.6401 94.1728 56.7912C94.1728 58.0179 93.8677 58.6712 93.293 58.6712C92.873 58.6712 92.6078 58.4045 92.4531 57.8667C92.3779 57.6001 92.3381 57.329 92.3381 56.9823C92.3381 56.1379 92.5282 55.5245 92.873 55.2534C93.0631 55.0979 93.2179 55.0623 93.3682 55.0623H93.3726Z" fill="white"/>
<path d="M98.0762 58.5956H97.7314V54.7556H95.9763V54.9867H96.5112V58.0978C96.5112 58.3645 96.3963 58.56 96.1664 58.56H95.9365V58.7912H98.2663C98.2663 58.6356 98.2265 58.56 98.1514 58.56C98.1514 58.6 98.1116 58.6001 98.0762 58.6001V58.5956ZM97.811 53.4889C97.811 53.2223 97.696 52.9912 97.4308 52.8756C97.3158 52.8 97.2009 52.8 97.0859 52.8C96.8207 52.8 96.6262 52.9156 96.4759 53.1823C96.4007 53.2978 96.4007 53.4134 96.4007 53.5289C96.4007 53.7956 96.5157 53.9912 96.7809 54.1423C96.8958 54.1823 97.0108 54.2178 97.1257 54.2178C97.391 54.2178 97.6209 54.1023 97.7358 53.8712C97.7756 53.7156 97.811 53.6045 97.811 53.4889Z" fill="white"/>
<path d="M101.051 58.5956H100.592V52.6445H98.6465V52.8756H99.3715V58.0579C99.3715 58.3245 99.2566 58.4801 99.0665 58.5201C98.9515 58.5601 98.8366 58.5601 98.6465 58.5601V58.7912H101.281C101.281 58.6356 101.242 58.5601 101.166 58.5601C101.127 58.6001 101.091 58.6001 101.051 58.6001V58.5956Z" fill="white"/>
<path d="M103.837 54.8311C104.257 54.8311 104.447 55.1777 104.447 55.8666C104.447 56.1733 104.372 56.3644 104.182 56.4044C104.067 56.4444 103.876 56.4799 103.607 56.4444H102.997C103.072 55.4088 103.342 54.8711 103.837 54.8311ZM105.592 57.8622L105.362 57.7866C105.172 58.1688 104.902 58.4399 104.522 58.5911C104.367 58.6311 104.217 58.6666 104.062 58.6666C103.567 58.6666 103.222 58.3599 103.067 57.7066C103.028 57.4399 102.992 57.1288 102.992 56.7466L103.872 56.7866C104.902 56.8266 105.477 56.6711 105.627 56.3244C105.667 56.2488 105.667 56.1333 105.667 56.0177C105.667 55.4799 105.402 55.0977 104.827 54.8266C104.522 54.7111 104.177 54.6355 103.797 54.6355C103.072 54.6355 102.537 54.8666 102.117 55.3644C101.812 55.7466 101.657 56.2088 101.657 56.7866C101.657 57.7066 102.002 58.3599 102.687 58.7066C103.032 58.8622 103.373 58.9733 103.792 58.9733C104.518 58.9733 105.052 58.7066 105.397 58.2044C105.512 58.0488 105.552 57.9377 105.587 57.8577L105.592 57.8622Z" fill="white"/>
</g>
<defs>
<clipPath id="clip0_33_4654">
<rect width="114" height="80" fill="white"/>
</clipPath>
</defs>
</svg>
